<svg width="20" height="20" viewBox="0 0 20 20" fill="none" xmlns="http://www.w3.org/2000/svg">
<path d="M10.1579 0.732247C10.1322 0.732247 10.108 0.738663 10.0838 0.738663C10.0082 0.736524 9.93334 0.731534 9.85707 0.732247H10.1579ZM10.041 12.3337C10.0274 12.3337 10.0153 12.3316 10.0018 12.3316C9.9918 12.3316 9.98253 12.3337 9.97255 12.3337H10.041ZM5.80075 8.06499C5.81144 8.06285 5.81928 8.05144 5.83069 8.04859C6.50151 10.476 8.2381 12.2924 10.0025 12.3309C11.6093 12.2568 13.5826 10.4731 14.2399 8.05786C14.5421 8.07639 14.8444 7.71995 14.9292 7.22378C15.0169 6.70623 14.833 6.24428 14.5215 6.19081C14.5015 6.18725 14.4808 6.20008 14.4616 6.20079C14.3711 2.20649 12.4734 0.797832 10.0838 0.737237C7.61932 0.749356 5.41294 2.46171 5.55266 6.20222C5.52914 6.20222 5.50704 6.18725 5.48423 6.19152C5.17127 6.24499 4.98877 6.70694 5.07646 7.22449C5.162 7.74062 5.48708 8.11703 5.80075 8.06499ZM13.3224 13.0245L11.0832 17.4059L10.7296 14.5565L11.2821 14.1031H9.94333H8.7193L9.2725 14.5565L8.9182 17.4059L6.68187 13.0245C2.79237 13.5485 0 15.2152 0 19.2673H20C20.0014 15.2145 17.2098 13.5492 13.3224 13.0245Z" fill="#999999"/>
</svg>
