<svg width="48" height="45" viewBox="0 0 48 45" fill="none" xmlns="http://www.w3.org/2000/svg">
<circle cx="25.5" cy="22.5" r="22" fill="white" stroke="#00B2FF"/>
<path d="M21.9759 28.2156C21.2453 28.6107 20.5956 29.1026 20.0145 29.6161C20.222 36.161 25.2873 39.2243 28.4322 40C29.9387 40 33.1454 38.6252 33.9202 33.1258C34.8886 26.2516 26.8182 25.5969 21.9759 28.2156Z" fill="white"/>
<path d="M19.3152 34.7304L21.9357 12.7241L0.0642796 20.1385L15.5269 36.0146L19.3152 34.7304ZM14.551 26.9063L16.5369 26.6689L14.551 26.9063ZM21.9759 28.2156L21.0245 26.4564L21.0245 26.4564L21.9759 28.2156ZM33.9202 33.1258L35.9006 33.4048L33.9202 33.1258ZM28.4322 40L27.9533 41.9418L28.1892 42H28.4322V40ZM21.0074 23.6328L19.112 22.9946L21.0074 23.6328ZM20.9938 14.7946C20.9938 20.6856 25.7694 25.4612 31.6604 25.4612C37.5515 25.4612 42.3271 20.6856 42.3271 14.7946C42.3271 8.90354 37.5515 4.12791 31.6604 4.12791C25.7694 4.12791 20.9938 8.90354 20.9938 14.7946ZM12.5652 27.1437C12.8395 29.4389 13.1315 31.1208 13.513 32.2473C13.699 32.7965 13.9727 33.4239 14.4373 33.9215C14.9949 34.5188 15.8025 34.8894 16.7283 34.7676C17.4703 34.67 18.0385 34.2805 18.3658 34.0259C18.7267 33.7451 19.0729 33.4017 19.3712 33.0941C20.0248 32.42 20.5983 31.7692 21.3389 31.1148L18.6902 28.1174C17.7955 28.9081 17.0055 29.7877 16.4994 30.3097C16.2178 30.6001 16.0351 30.7712 15.9096 30.8688C15.7505 30.9926 15.8746 30.8455 16.2067 30.8018C16.4094 30.7751 16.6539 30.7922 16.8997 30.8882C17.1361 30.9805 17.2861 31.1115 17.3611 31.1918C17.4751 31.3139 17.4238 31.3249 17.3017 30.9643C17.067 30.2712 16.8107 28.9599 16.5369 26.6689L12.5652 27.1437ZM21.3389 31.1148C21.8437 30.6688 22.3686 30.277 22.9273 29.9749L21.0245 26.4564C20.1221 26.9444 19.3476 27.5365 18.6902 28.1174L21.3389 31.1148ZM22.9273 29.9749C24.9637 28.8735 27.6606 28.501 29.5913 29.0378C30.522 29.2965 31.1447 29.7264 31.5089 30.2428C31.8565 30.7358 32.1255 31.5284 31.9397 32.8468L35.9006 33.4048C36.1991 31.2861 35.8224 29.419 34.7779 27.9377C33.7499 26.4799 32.2339 25.6208 30.6628 25.184C27.5898 24.3296 23.8303 24.939 21.0245 26.4564L22.9273 29.9749ZM31.9397 32.8468C31.282 37.5158 28.7915 38 28.4322 38V42C31.0859 42 35.0089 39.7346 35.9006 33.4048L31.9397 32.8468ZM28.9112 38.0582C26.2674 37.4061 22.1821 34.8713 22.0135 29.5528L18.0155 29.6795C18.2619 37.4506 24.3071 41.0425 27.9533 41.9418L28.9112 38.0582ZM22.0135 29.5528C21.967 28.0838 22.2078 26.3351 22.9028 24.2711L19.112 22.9946C18.2878 25.442 17.9518 27.6671 18.0155 29.6795L22.0135 29.5528ZM22.9028 24.2711C24.6435 19.1018 26.5695 17.08 27.875 16.3735C29.0699 15.7268 29.9941 16.0462 30.4634 16.3967L32.8575 13.1924C31.2822 12.0154 28.6878 11.3854 25.9712 12.8556C23.3651 14.2659 20.9868 17.427 19.112 22.9946L22.9028 24.2711Z" fill="#00B2FF"/>
</svg>
